<svg width="132" height="21" viewBox="0 0 132 21" fill="none" xmlns="http://www.w3.org/2000/svg">
<path d="M10.5 21C16.299 21 21 16.299 21 10.5C21 4.70101 16.299 0 10.5 0C4.70101 0 0 4.70101 0 10.5C0 16.299 4.70101 21 10.5 21Z" fill="url(#paint0_linear_106_208)"/>
<path d="M10.5363 5.33782L5.33832 10.535L5.05725 10.2541L10.2569 5.05873L10.538 5.05699L10.5363 5.33782ZM10.2569 5.05873C10.3333 4.98072 10.4599 4.98072 10.538 5.05699C10.6143 5.135 10.6143 5.26155 10.5363 5.33782L10.2569 5.05873ZM15.5104 10.5904L10.2569 5.33956L10.538 5.05699L15.7915 10.3096V10.5904H15.5104ZM15.7915 10.3096C15.8695 10.3876 15.8695 10.5124 15.7915 10.5904C15.7134 10.6684 15.5885 10.6684 15.5104 10.5904L15.7915 10.3096ZM10.3125 15.505L15.5104 10.3096L15.7915 10.5904L10.5935 15.7858H10.3125V15.505ZM10.5935 15.7858C10.5154 15.8638 10.3888 15.8638 10.3125 15.7858C10.2344 15.7095 10.2344 15.583 10.3125 15.505L10.5935 15.7858ZM5.33832 10.2541L10.5935 15.505L10.3125 15.7858L5.05725 10.535V10.2541H5.33832ZM5.05725 10.535C4.98092 10.4569 4.98092 10.3321 5.05725 10.2541C5.13533 10.1761 5.26198 10.1761 5.33832 10.2541L5.05725 10.535Z" fill="#FEFEFE"/>
<path d="M11.5634 9.29027L11.2841 9.56937L11.0637 9.35095L10.8434 9.13945L10.623 8.93316L10.4044 8.73381L10.1876 8.53965L9.97242 8.3507L9.75902 8.17041L9.54736 7.99532L9.33916 7.82891L9.13444 7.66769L8.93145 7.51514L8.73366 7.37125L8.53934 7.23257L8.3485 7.10429L8.16459 6.98294L7.98416 6.87026L7.81066 6.76798L7.64237 6.67264L7.48102 6.5877L7.32661 6.51142L7.17913 6.44381L7.0386 6.38661L6.90848 6.3398L6.78703 6.3034L6.67599 6.27739L6.57537 6.26006L6.48688 6.25312L6.41054 6.25486L6.34982 6.26353L6.30124 6.27913L6.26654 6.29646L6.23878 6.319L5.95945 6.0399L6.04967 5.96536L6.15203 5.91162L6.26307 5.87868L6.37758 5.86135L6.49903 5.85788L6.62394 5.86828L6.7558 5.88908L6.89113 5.92202L7.0334 5.96536L7.18087 6.01736L7.33528 6.08151L7.4949 6.15258L7.66145 6.23579L7.83148 6.32593L8.00845 6.42474L8.19062 6.53396L8.37799 6.6501L8.56884 6.77492L8.76489 6.9084L8.96441 7.04882L9.1674 7.1979L9.37386 7.35392L9.58553 7.5186L9.79719 7.68849L10.0123 7.86704L10.2309 8.0508L10.4495 8.24322L10.6699 8.44084L10.892 8.64366L11.1158 8.85342L11.3396 9.06838L11.5634 9.29027ZM14.8147 14.8913L14.5354 14.6105L14.5579 14.5845L14.5753 14.5481L14.5909 14.4995L14.5996 14.4389L14.6013 14.3626L14.5944 14.2742L14.577 14.1736L14.551 14.0627L14.5128 13.9413L14.466 13.8113L14.4105 13.6709L14.3428 13.5253L14.2665 13.3693L14.1814 13.2081L14.086 13.0399L13.9837 12.8665L13.8709 12.6863L13.7494 12.5025L13.6211 12.3118L13.4823 12.1177L13.3383 11.92L13.1856 11.7172L13.0242 11.5127L12.8577 11.3046L12.6824 11.0931L12.502 10.8799L12.3146 10.6632L12.1203 10.4465L11.9191 10.2281L11.7126 10.0097L11.5009 9.78953L11.2841 9.56937L11.5634 9.29027L11.7837 9.5139L11.9989 9.73579L12.2088 9.95942L12.4135 10.1813L12.6113 10.4015L12.8022 10.6216L12.9861 10.8383L13.1648 11.055L13.3348 11.2665L13.4996 11.4763L13.6558 11.6843L13.805 11.8871L13.9455 12.0865L14.0791 12.2823L14.204 12.473L14.3202 12.6603L14.4295 12.8423L14.5284 13.0191L14.6187 13.189L14.7002 13.3554L14.7731 13.5149L14.8355 13.6692L14.8893 13.8165L14.9327 13.9587L14.9657 14.0956L14.9865 14.2256L14.9969 14.3505L14.9934 14.4718L14.9761 14.5879L14.9414 14.6972L14.8876 14.8012L14.8147 14.8913ZM9.21078 11.6409L9.4901 11.3618L9.71045 11.5785L9.93079 11.79L10.1511 11.9963L10.368 12.1974L10.5866 12.3916L10.8017 12.5788L11.0151 12.7608L11.2268 12.9342L11.435 13.1023L11.6397 13.2618L11.8427 13.4143L12.0405 13.56L12.2348 13.6969L12.4239 13.8269L12.6096 13.9465L12.79 14.0592L12.9635 14.1632L13.1318 14.2568L13.2931 14.3435L13.4476 14.4198L13.595 14.4857L13.7338 14.5429L13.8657 14.5897L13.9871 14.6261L14.0982 14.6538L14.1988 14.6694L14.2873 14.6781L14.3619 14.6764L14.4243 14.666L14.4712 14.6521L14.5076 14.633L14.5354 14.6105L14.8147 14.8913L14.7245 14.9641L14.6221 15.0179L14.5111 15.0525L14.3948 15.0699L14.2751 15.0733L14.1502 15.0629L14.0184 15.0404L13.883 15.0075L13.7408 14.9659L13.5933 14.9121L13.4389 14.8497L13.2793 14.7769L13.1127 14.6954L12.9409 14.6053L12.7657 14.5047L12.5835 14.3973L12.3962 14.2794L12.2053 14.1546L12.0093 14.0211L11.8098 13.8807L11.6068 13.7316L11.3986 13.5756L11.1886 13.4126L10.977 13.241L10.7601 13.0624L10.5432 12.8787L10.3246 12.688L10.1025 12.4904L9.88047 12.2858L9.6584 12.0761L9.43459 11.8611L9.21078 11.6409ZM5.95945 6.0399L6.23878 6.319L6.21623 6.34674L6.19888 6.38141L6.18326 6.42995L6.17459 6.49062L6.17285 6.56689L6.17979 6.6553L6.19714 6.75585L6.22317 6.8668L6.2596 6.98814L6.30645 7.11989L6.3637 7.25857L6.43136 7.40592L6.50597 7.56021L6.59272 7.72143L6.6864 7.88958L6.7905 8.06467L6.90327 8.24322L7.02472 8.42871L7.15311 8.61766L7.29017 8.81182L7.43591 9.01117L7.58858 9.21226L7.7482 9.41855L7.91649 9.62658L8.08999 9.83807L8.27216 10.0513L8.45954 10.2663L8.65385 10.4829L8.85511 10.7014L9.06157 10.9215L9.27323 11.1417L9.4901 11.3618L9.21078 11.6409L8.99044 11.4173L8.77356 11.1937L8.56537 10.9701L8.36064 10.7482L8.16286 10.528L7.97201 10.3079L7.78811 10.0912L7.6094 9.87621L7.43938 9.66298L7.27456 9.45322L7.11841 9.24693L6.9692 9.04238L6.82867 8.84302L6.69508 8.64713L6.57016 8.45644L6.45392 8.26922L6.34462 8.08893L6.24572 7.91211L6.15377 7.74049L6.07223 7.57408L6.00109 7.41459L5.9369 7.26031L5.88485 7.11296L5.84148 6.97081L5.80851 6.83559L5.78769 6.70384L5.77728 6.57903L5.78075 6.45942L5.7981 6.34327L5.83107 6.23232L5.88485 6.13004L5.95945 6.0399Z" fill="#FEFEFE"/>
<path d="M9.19512 9.26946L9.41719 9.04757L9.641 8.83261L9.86481 8.62285L10.0869 8.42003L10.3072 8.22241L10.5276 8.02998L10.7444 7.84623L10.9596 7.66768L11.173 7.49779L11.3829 7.3331L11.5894 7.17709L11.7924 7.028L11.9936 6.88759L12.1879 6.7541L12.3805 6.62929L12.5662 6.51314L12.7483 6.40393L12.9253 6.30512L13.097 6.21324L13.2619 6.13177L13.4215 6.06069L13.5759 5.99655L13.7234 5.94455L13.8656 5.90121L14.0027 5.86827L14.1328 5.84747L14.2577 5.83707L14.3792 5.8388L14.4954 5.85787L14.6047 5.89081L14.7088 5.94455L14.799 6.01909L14.518 6.29819L14.492 6.27565L14.4555 6.25831L14.4069 6.24271L14.3462 6.23405L14.2699 6.23231L14.1814 6.23925L14.0825 6.25658L13.9697 6.28258L13.8483 6.31899L13.7182 6.36579L13.5794 6.423L13.4319 6.49061L13.2775 6.56688L13.1144 6.65183L12.9478 6.74544L12.7726 6.84945L12.5939 6.96213L12.4083 7.08348L12.2192 7.21176L12.0248 7.34871L11.8253 7.49432L11.6241 7.64687L11.4176 7.80809L11.2094 7.97451L10.9977 8.1496L10.7843 8.32989L10.5692 8.51884L10.3523 8.713L10.1337 8.91235L9.91513 9.11864L9.69479 9.33013L9.47445 9.54856L9.19512 9.26946ZM5.94206 14.8705L5.86919 14.7786L5.81541 14.6763L5.78071 14.5671L5.76336 14.451L5.75989 14.3296L5.7703 14.2048L5.79285 14.0748L5.82582 13.9379L5.86746 13.7957L5.92124 13.6484L5.9837 13.4941L6.05657 13.3346L6.13811 13.1682L6.22833 12.9983L6.32896 12.8215L6.43652 12.6394L6.55277 12.4522L6.67942 12.2615L6.81128 12.0656L6.95354 11.8663L7.10275 11.6635L7.2589 11.4554L7.42198 11.2457L7.59374 11.0325L7.77071 10.8175L7.95635 10.6008L8.1472 10.3807L8.34498 10.1605L8.54797 9.9386L8.75791 9.71498L8.97304 9.49308L9.19512 9.26946L9.47445 9.54856L9.25584 9.76872L9.04417 9.98887L8.83771 10.2073L8.63819 10.4257L8.44388 10.6424L8.25477 10.8591L8.07433 11.0723L7.8991 11.2838L7.73254 11.4918L7.57292 11.6964L7.42025 11.8992L7.27451 12.0968L7.13745 12.291L7.00733 12.4817L6.88761 12.6654L6.77484 12.8457L6.67074 13.0191L6.57532 13.1872L6.49031 13.3485L6.41397 13.5027L6.34804 13.6501L6.29079 13.7905L6.24394 13.9205L6.20751 14.0419L6.17975 14.1528L6.1624 14.2534L6.15546 14.3418L6.15719 14.418L6.1676 14.4787L6.18148 14.5273L6.20057 14.5637L6.22139 14.5897L5.94206 14.8705ZM11.546 11.6201L11.3222 11.8403L11.1001 12.0552L10.8763 12.265L10.6542 12.4696L10.4339 12.6672L10.2135 12.8579L9.99667 13.0416L9.78153 13.2202L9.56813 13.3901L9.3582 13.5547L9.15174 13.7108L8.94702 13.8599L8.7475 14.0003L8.55144 14.1337L8.3606 14.2586L8.17496 14.3764L7.99279 14.4839L7.81582 14.5845L7.64406 14.6746L7.47924 14.7561L7.31962 14.8289L7.16521 14.8913L7.016 14.9433L6.87547 14.9866L6.73841 15.0196L6.60829 15.0421L6.48163 15.0508L6.36192 15.0491L6.24568 15.0317L6.13637 14.997L6.03228 14.9433L5.94206 14.8705L6.22139 14.5897L6.24915 14.6122L6.28558 14.6313L6.33243 14.6451L6.39488 14.6555H6.46949L6.55797 14.6486L6.6586 14.633L6.77137 14.6053L6.89282 14.5689L7.02294 14.5221L7.16174 14.4649L7.30921 14.399L7.46362 14.3227L7.62497 14.236L7.79327 14.1424L7.9685 14.0384L8.1472 13.9257L8.33284 13.8044L8.52195 13.6761L8.71627 13.5391L8.91579 13.3935L9.11704 13.241L9.3235 13.0815L9.5317 12.9133L9.74163 12.7383L9.95677 12.558L10.1719 12.3707L10.3888 12.1766L10.6074 11.9755L10.826 11.7692L11.0463 11.5577L11.2667 11.3393L11.546 11.6201ZM14.799 6.01909L14.8719 6.10923L14.9257 6.21151L14.9604 6.32246L14.9778 6.43687L14.9795 6.55822L14.9708 6.68303L14.9483 6.81478L14.9153 6.94999L14.8719 7.09214L14.8199 7.23949L14.7574 7.39378L14.6845 7.55326L14.603 7.71968L14.5128 7.8913L14.4122 8.06639L14.3046 8.24841L14.1866 8.43563L14.0617 8.62632L13.9298 8.82221L13.7876 9.02156L13.6384 9.22612L13.4822 9.43241L13.3191 9.64217L13.1474 9.85539L12.9704 10.0704L12.7848 10.287L12.5939 10.5072L12.3961 10.7274L12.1931 10.9493L11.9832 11.1729L11.7681 11.3965L11.546 11.6201L11.2667 11.3393L11.4853 11.1191L11.6969 10.9007L11.9034 10.6806L12.1029 10.4621L12.2972 10.2454L12.4846 10.0305L12.6668 9.81726L12.8403 9.60576L13.0086 9.39774L13.1682 9.19145L13.3209 8.99036L13.4666 8.791L13.6037 8.59685L13.7338 8.40789L13.8535 8.22241L13.9663 8.04212L14.0704 7.86877L14.1658 7.70061L14.2508 7.53939L14.3271 7.38511L14.3931 7.23776L14.4503 7.09908L14.4972 6.96733L14.5336 6.84598L14.5614 6.73504L14.577 6.63449L14.5856 6.54608L14.5839 6.46981L14.5735 6.40913L14.5596 6.36059L14.5405 6.32592L14.518 6.29819L14.799 6.01909Z" fill="#FEFEFE"/>
<path d="M10.3697 11.0273C10.6983 11.0273 10.9648 10.7665 10.9648 10.4448C10.9648 10.1231 10.6983 9.86234 10.3697 9.86234C10.041 9.86234 9.7746 10.1231 9.7746 10.4448C9.7746 10.7665 10.041 11.0273 10.3697 11.0273Z" fill="#FEFEFE"/>
<path d="M30.16 15.228C29.408 15.228 28.744 15.104 28.168 14.856C27.6 14.6 27.12 14.26 26.728 13.836C26.344 13.404 26.052 12.92 25.852 12.384C25.66 11.84 25.564 11.276 25.564 10.692V10.428C25.564 9.876 25.66 9.336 25.852 8.808C26.044 8.28 26.324 7.804 26.692 7.38C27.068 6.956 27.528 6.62 28.072 6.372C28.624 6.116 29.256 5.988 29.968 5.988C30.736 5.988 31.416 6.132 32.008 6.42C32.6 6.7 33.076 7.096 33.436 7.608C33.796 8.112 34.008 8.7 34.072 9.372H32.356C32.3 8.996 32.16 8.676 31.936 8.412C31.712 8.14 31.428 7.932 31.084 7.788C30.748 7.644 30.376 7.572 29.968 7.572C29.56 7.572 29.188 7.644 28.852 7.788C28.524 7.932 28.244 8.136 28.012 8.4C27.78 8.664 27.6 8.98 27.472 9.348C27.352 9.716 27.292 10.124 27.292 10.572C27.292 11.06 27.36 11.496 27.496 11.88C27.632 12.264 27.824 12.592 28.072 12.864C28.32 13.128 28.62 13.332 28.972 13.476C29.324 13.612 29.72 13.68 30.16 13.68C30.744 13.68 31.256 13.56 31.696 13.32C32.136 13.072 32.456 12.752 32.656 12.36L32.356 13.74V11.484H33.928V13.428C33.552 13.996 33.04 14.44 32.392 14.76C31.744 15.072 31 15.228 30.16 15.228ZM29.884 11.82V10.548H34.66V11.82H29.884ZM36.2444 15V8.484H37.9124V15H36.2444ZM35.3324 9.732V8.484H37.9124V9.732H35.3324ZM36.8564 7.704C36.5284 7.704 36.2844 7.62 36.1244 7.452C35.9724 7.276 35.8964 7.06 35.8964 6.804C35.8964 6.532 35.9724 6.312 36.1244 6.144C36.2844 5.976 36.5284 5.892 36.8564 5.892C37.1844 5.892 37.4244 5.976 37.5764 6.144C37.7284 6.312 37.8044 6.532 37.8044 6.804C37.8044 7.06 37.7284 7.276 37.5764 7.452C37.4244 7.62 37.1844 7.704 36.8564 7.704ZM42.6667 15.084C42.0667 15.084 41.5707 15.008 41.1787 14.856C40.7947 14.696 40.5067 14.432 40.3147 14.064C40.1227 13.688 40.0267 13.184 40.0267 12.552L40.0387 6.648H41.5987L41.5867 12.66C41.5867 12.98 41.6707 13.228 41.8387 13.404C42.0147 13.572 42.2627 13.656 42.5827 13.656H43.6027V15.084H42.6667ZM38.9947 9.708V8.484H43.6027V9.708H38.9947ZM47.3198 15.204C46.4238 15.204 45.7198 15.016 45.2078 14.64C44.7038 14.256 44.4398 13.728 44.4158 13.056H45.9158C45.9398 13.28 46.0638 13.484 46.2878 13.668C46.5118 13.852 46.8638 13.944 47.3438 13.944C47.7438 13.944 48.0598 13.872 48.2918 13.728C48.5318 13.584 48.6518 13.388 48.6518 13.14C48.6518 12.924 48.5598 12.752 48.3758 12.624C48.1998 12.496 47.8958 12.412 47.4638 12.372L46.8878 12.312C46.1598 12.232 45.5998 12.024 45.2078 11.688C44.8158 11.352 44.6198 10.904 44.6198 10.344C44.6198 9.896 44.7318 9.52 44.9558 9.216C45.1798 8.912 45.4878 8.684 45.8798 8.532C46.2798 8.372 46.7358 8.292 47.2478 8.292C48.0478 8.292 48.6958 8.468 49.1918 8.82C49.6878 9.172 49.9478 9.688 49.9718 10.368H48.4718C48.4558 10.144 48.3438 9.952 48.1358 9.792C47.9278 9.632 47.6278 9.552 47.2358 9.552C46.8838 9.552 46.6118 9.62 46.4198 9.756C46.2278 9.892 46.1318 10.068 46.1318 10.284C46.1318 10.492 46.2078 10.652 46.3598 10.764C46.5198 10.876 46.7758 10.952 47.1278 10.992L47.7038 11.052C48.4718 11.132 49.0718 11.344 49.5038 11.688C49.9438 12.032 50.1638 12.496 50.1638 13.08C50.1638 13.512 50.0438 13.888 49.8038 14.208C49.5718 14.52 49.2438 14.764 48.8198 14.94C48.3958 15.116 47.8958 15.204 47.3198 15.204ZM51.5418 15V6.24H53.2098V11.352H52.9218C52.9218 10.696 53.0058 10.14 53.1738 9.684C53.3418 9.228 53.5898 8.88 53.9178 8.64C54.2538 8.4 54.6778 8.28 55.1898 8.28H55.2618C56.0058 8.28 56.5698 8.536 56.9538 9.048C57.3378 9.56 57.5298 10.304 57.5298 11.28V15H55.8618V11.124C55.8618 10.708 55.7418 10.38 55.5018 10.14C55.2698 9.9 54.9618 9.78 54.5778 9.78C54.1698 9.78 53.8378 9.916 53.5818 10.188C53.3338 10.452 53.2098 10.8 53.2098 11.232V15H51.5418ZM62.455 15.228C61.879 15.228 61.371 15.136 60.931 14.952C60.491 14.768 60.119 14.52 59.815 14.208C59.511 13.888 59.279 13.528 59.119 13.128C58.967 12.728 58.891 12.312 58.891 11.88V11.628C58.891 11.18 58.971 10.756 59.131 10.356C59.299 9.948 59.535 9.588 59.839 9.276C60.151 8.956 60.527 8.708 60.967 8.532C61.407 8.348 61.903 8.256 62.455 8.256C63.007 8.256 63.503 8.348 63.943 8.532C64.383 8.708 64.755 8.956 65.059 9.276C65.371 9.588 65.607 9.948 65.767 10.356C65.927 10.756 66.007 11.18 66.007 11.628V11.88C66.007 12.312 65.927 12.728 65.767 13.128C65.615 13.528 65.387 13.888 65.083 14.208C64.779 14.52 64.407 14.768 63.967 14.952C63.527 15.136 63.023 15.228 62.455 15.228ZM62.455 13.8C62.863 13.8 63.207 13.712 63.487 13.536C63.767 13.352 63.979 13.108 64.123 12.804C64.267 12.492 64.339 12.14 64.339 11.748C64.339 11.348 64.263 10.996 64.111 10.692C63.967 10.38 63.751 10.136 63.463 9.96C63.183 9.776 62.847 9.684 62.455 9.684C62.063 9.684 61.723 9.776 61.435 9.96C61.155 10.136 60.939 10.38 60.787 10.692C60.635 10.996 60.559 11.348 60.559 11.748C60.559 12.14 60.631 12.492 60.775 12.804C60.927 13.108 61.143 13.352 61.423 13.536C61.703 13.712 62.047 13.8 62.455 13.8ZM70.3595 15.228C69.7915 15.228 69.2995 15.132 68.8835 14.94C68.4755 14.748 68.1315 14.492 67.8515 14.172C67.5795 13.852 67.3755 13.492 67.2395 13.092C67.1035 12.692 67.0355 12.284 67.0355 11.868V11.64C67.0355 11.2 67.1035 10.78 67.2395 10.38C67.3835 9.972 67.5955 9.612 67.8755 9.3C68.1555 8.98 68.4995 8.728 68.9075 8.544C69.3235 8.352 69.8035 8.256 70.3475 8.256C70.9155 8.256 71.4235 8.368 71.8715 8.592C72.3195 8.808 72.6755 9.112 72.9395 9.504C73.2115 9.896 73.3635 10.352 73.3955 10.872H71.7755C71.7355 10.536 71.5915 10.256 71.3435 10.032C71.1035 9.808 70.7715 9.696 70.3475 9.696C69.9795 9.696 69.6715 9.784 69.4235 9.96C69.1835 10.136 69.0035 10.38 68.8835 10.692C68.7635 10.996 68.7035 11.348 68.7035 11.748C68.7035 12.132 68.7595 12.48 68.8715 12.792C68.9915 13.104 69.1715 13.348 69.4115 13.524C69.6595 13.7 69.9755 13.788 70.3595 13.788C70.6475 13.788 70.8955 13.736 71.1035 13.632C71.3115 13.528 71.4755 13.384 71.5955 13.2C71.7235 13.016 71.8035 12.808 71.8355 12.576H73.4555C73.4235 13.104 73.2675 13.568 72.9875 13.968C72.7155 14.36 72.3515 14.668 71.8955 14.892C71.4475 15.116 70.9355 15.228 70.3595 15.228ZM79.3518 15L77.1678 11.952H76.1958L78.9678 8.484H80.7078L78.1518 11.688L78.1878 10.848L81.2358 15H79.3518ZM74.7918 15V6.24H76.4598V15H74.7918ZM84.9198 15V6.24H86.6238V15H84.9198ZM86.3838 11.352V9.912L89.8878 9.9V11.34L86.3838 11.352ZM86.3838 7.68V6.24H90.0558V7.68H86.3838ZM91.7327 15V8.484H93.4007V15H91.7327ZM90.8207 9.732V8.484H93.4007V9.732H90.8207ZM92.3447 7.704C92.0167 7.704 91.7727 7.62 91.6127 7.452C91.4607 7.276 91.3847 7.06 91.3847 6.804C91.3847 6.532 91.4607 6.312 91.6127 6.144C91.7727 5.976 92.0167 5.892 92.3447 5.892C92.6727 5.892 92.9127 5.976 93.0647 6.144C93.2167 6.312 93.2927 6.532 93.2927 6.804C93.2927 7.06 93.2167 7.276 93.0647 7.452C92.9127 7.62 92.6727 7.704 92.3447 7.704ZM95.323 15V8.484H96.643V11.28H96.523C96.523 10.616 96.611 10.064 96.787 9.624C96.963 9.176 97.223 8.84 97.567 8.616C97.919 8.392 98.355 8.28 98.875 8.28H98.947C99.723 8.28 100.311 8.532 100.711 9.036C101.111 9.532 101.311 10.276 101.311 11.268V15H99.643V11.124C99.643 10.724 99.527 10.4 99.295 10.152C99.071 9.904 98.759 9.78 98.359 9.78C97.951 9.78 97.619 9.908 97.363 10.164C97.115 10.412 96.991 10.748 96.991 11.172V15H95.323ZM107.052 15V13.068H106.776V10.92C106.776 10.544 106.684 10.264 106.5 10.08C106.316 9.896 106.032 9.804 105.648 9.804C105.448 9.804 105.208 9.808 104.928 9.816C104.648 9.824 104.364 9.836 104.076 9.852C103.796 9.86 103.544 9.872 103.32 9.888V8.472C103.504 8.456 103.712 8.44 103.944 8.424C104.176 8.408 104.412 8.4 104.652 8.4C104.9 8.392 105.132 8.388 105.348 8.388C106.02 8.388 106.576 8.476 107.016 8.652C107.464 8.828 107.8 9.104 108.024 9.48C108.256 9.856 108.372 10.348 108.372 10.956V15H107.052ZM104.952 15.168C104.48 15.168 104.064 15.084 103.704 14.916C103.352 14.748 103.076 14.508 102.876 14.196C102.684 13.884 102.588 13.508 102.588 13.068C102.588 12.588 102.704 12.196 102.936 11.892C103.176 11.588 103.508 11.36 103.932 11.208C104.364 11.056 104.868 10.98 105.444 10.98H106.956V11.976H105.42C105.036 11.976 104.74 12.072 104.532 12.264C104.332 12.448 104.232 12.688 104.232 12.984C104.232 13.28 104.332 13.52 104.532 13.704C104.74 13.888 105.036 13.98 105.42 13.98C105.652 13.98 105.864 13.94 106.056 13.86C106.256 13.772 106.42 13.628 106.548 13.428C106.684 13.22 106.76 12.94 106.776 12.588L107.184 13.056C107.144 13.512 107.032 13.896 106.848 14.208C106.672 14.52 106.424 14.76 106.104 14.928C105.792 15.088 105.408 15.168 104.952 15.168ZM110.159 15V8.484H111.479V11.28H111.359C111.359 10.616 111.447 10.064 111.623 9.624C111.799 9.176 112.059 8.84 112.403 8.616C112.755 8.392 113.191 8.28 113.711 8.28H113.783C114.559 8.28 115.147 8.532 115.547 9.036C115.947 9.532 116.147 10.276 116.147 11.268V15H114.479V11.124C114.479 10.724 114.363 10.4 114.131 10.152C113.907 9.904 113.595 9.78 113.195 9.78C112.787 9.78 112.455 9.908 112.199 10.164C111.951 10.412 111.827 10.748 111.827 11.172V15H110.159ZM120.832 15.228C120.264 15.228 119.772 15.132 119.356 14.94C118.948 14.748 118.604 14.492 118.324 14.172C118.052 13.852 117.848 13.492 117.712 13.092C117.576 12.692 117.508 12.284 117.508 11.868V11.64C117.508 11.2 117.576 10.78 117.712 10.38C117.856 9.972 118.068 9.612 118.348 9.3C118.628 8.98 118.972 8.728 119.38 8.544C119.796 8.352 120.276 8.256 120.82 8.256C121.388 8.256 121.896 8.368 122.344 8.592C122.792 8.808 123.148 9.112 123.412 9.504C123.684 9.896 123.836 10.352 123.868 10.872H122.248C122.208 10.536 122.064 10.256 121.816 10.032C121.576 9.808 121.244 9.696 120.82 9.696C120.452 9.696 120.144 9.784 119.896 9.96C119.656 10.136 119.476 10.38 119.356 10.692C119.236 10.996 119.176 11.348 119.176 11.748C119.176 12.132 119.232 12.48 119.344 12.792C119.464 13.104 119.644 13.348 119.884 13.524C120.132 13.7 120.448 13.788 120.832 13.788C121.12 13.788 121.368 13.736 121.576 13.632C121.784 13.528 121.948 13.384 122.068 13.2C122.196 13.016 122.276 12.808 122.308 12.576H123.928C123.896 13.104 123.74 13.568 123.46 13.968C123.188 14.36 122.824 14.668 122.368 14.892C121.92 15.116 121.408 15.228 120.832 15.228ZM128.18 15.228C127.62 15.228 127.128 15.132 126.704 14.94C126.288 14.748 125.94 14.492 125.66 14.172C125.388 13.844 125.18 13.48 125.036 13.08C124.9 12.68 124.832 12.272 124.832 11.856V11.628C124.832 11.196 124.9 10.78 125.036 10.38C125.18 9.972 125.388 9.612 125.66 9.3C125.94 8.98 126.284 8.728 126.692 8.544C127.1 8.352 127.572 8.256 128.108 8.256C128.812 8.256 129.4 8.412 129.872 8.724C130.352 9.028 130.712 9.432 130.952 9.936C131.192 10.432 131.312 10.968 131.312 11.544V12.144H125.54V11.124H130.268L129.752 11.628C129.752 11.212 129.692 10.856 129.572 10.56C129.452 10.264 129.268 10.036 129.02 9.876C128.78 9.716 128.476 9.636 128.108 9.636C127.74 9.636 127.428 9.72 127.172 9.888C126.916 10.056 126.72 10.3 126.584 10.62C126.456 10.932 126.392 11.308 126.392 11.748C126.392 12.156 126.456 12.52 126.584 12.84C126.712 13.152 126.908 13.4 127.172 13.584C127.436 13.76 127.772 13.848 128.18 13.848C128.588 13.848 128.92 13.768 129.176 13.608C129.432 13.44 129.596 13.236 129.668 12.996H131.204C131.108 13.444 130.924 13.836 130.652 14.172C130.38 14.508 130.032 14.768 129.608 14.952C129.192 15.136 128.716 15.228 128.18 15.228Z" fill="url(#paint1_linear_106_208)"/>
<defs>
<linearGradient id="paint0_linear_106_208" x1="21.0004" y1="10.5002" x2="0" y2="10.5002" gradientUnits="userSpaceOnUse">
<stop stop-color="#D717FF"/>
<stop offset="1" stop-color="#3377FF"/>
</linearGradient>
<linearGradient id="paint1_linear_106_208" x1="45" y1="11" x2="130" y2="11" gradientUnits="userSpaceOnUse">
<stop stop-color="#0069FF"/>
<stop offset="0.722315" stop-color="#D856C1"/>
</linearGradient>
</defs>
</svg>
